<svg xmlns="http://www.w3.org/2000/svg" viewBox="0 0 74.19 67.98"><defs><style>.cls-1{fill:#2e2e2f;}.cls-2{fill:#fff;}.cls-3{fill:none;stroke:#2e2e2f;stroke-linecap:round;stroke-miterlimit:10;stroke-width:0.5px;}.cls-4{fill:#f49c81;}.cls-5{fill:#f0876d;}</style></defs><g id="Calque_2" data-name="Calque 2"><g id="Calque_1-2" data-name="Calque 1"><path class="cls-1" d="M37.09,67.73C16.75,67.73.25,63.59.25,58.44V9.54c0,5.08,16.5,9.28,36.84,9.28s36.85-4.2,36.85-9.28v48.9C73.94,63.59,57.44,67.73,37.09,67.73Z"/><ellipse class="cls-2" cx="37.09" cy="9.54" rx="36.84" ry="9.29"/><ellipse class="cls-3" cx="37.09" cy="9.54" rx="36.84" ry="9.29"/><line class="cls-3" x1="0.25" y1="9.54" x2="0.25" y2="58.44"/><line class="cls-3" x1="73.94" y1="9.54" x2="73.94" y2="58.44"/><path class="cls-3" d="M73.94,58.44c0,5.15-16.5,9.29-36.85,9.29S.25,63.59.25,58.44"/><ellipse class="cls-2" cx="16.69" cy="33.37" rx="2.22" ry="5.72" transform="translate(-20.31 38.18) rotate(-70.83)"/><ellipse class="cls-2" cx="58.25" cy="33.37" rx="5.72" ry="2.22" transform="translate(-7.73 20.97) rotate(-19.17)"/><circle class="cls-4" cx="16.69" cy="49.81" r="6.84"/><circle class="cls-4" cx="58.25" cy="49.81" r="6.84"/><path id="Polygone_2" data-name="Polygone 2" class="cls-5" d="M44.83,6.13a5.8,5.8,0,0,1,2.26,1.06,2.08,2.08,0,0,1,.81,1.45,1.87,1.87,0,0,1-.67,1.46A5.2,5.2,0,0,1,45,11.22l-11,2.93a9.45,9.45,0,0,1-2.8.31A8.43,8.43,0,0,1,28.71,14a4.64,4.64,0,0,1-1.81-1,1.87,1.87,0,0,1-.63-1.47l.38-5.62a2,2,0,0,1,.78-1.36,5.22,5.22,0,0,1,1.83-.94,9.08,9.08,0,0,1,2.43-.4,9.54,9.54,0,0,1,2.61.27Z"/></g></g></svg>